<?xml version="1.0" standalone="no"?>
<!DOCTYPE svg PUBLIC "-//W3C//DTD SVG 20010904//EN"
 "http://www.w3.org/TR/2001/REC-SVG-20010904/DTD/svg10.dtd">
<svg version="1.0" xmlns="http://www.w3.org/2000/svg"
 width="260.000000pt" height="260.000000pt" viewBox="0 0 260.000000 260.000000"
 preserveAspectRatio="xMidYMid meet">
<metadata>
Created by potrace 1.11, written by Peter Selinger 2001-2013
</metadata>
<g transform="translate(0.000000,260.000000) scale(0.100000,-0.100000)"
fill="#000000" stroke="none">
<path d="M1143 2286 c-24 -21 -26 -27 -18 -52 13 -35 71 -69 143 -85 87 -18
120 -18 126 -2 3 8 10 11 16 8 5 -3 10 -3 10 2 0 4 -29 21 -65 37 -35 16 -81
43 -102 61 -65 55 -78 59 -110 31z"/>
<path d="M921 2180 c-25 -22 -23 -50 5 -50 22 0 54 38 47 56 -7 19 -23 17 -52
-6z"/>
<path d="M1096 2106 c-41 -38 -44 -48 -16 -76 26 -26 32 -25 68 5 48 40 46 70
-5 99 -6 3 -27 -9 -47 -28z"/>
<path d="M1335 2104 c-5 -1 -22 -5 -37 -8 -28 -6 -78 -52 -78 -72 0 -30 34
-39 154 -41 67 0 121 -2 121 -3 0 0 17 -3 38 -5 85 -9 123 -15 152 -24 37 -12
24 -13 -92 -13 -85 1 -95 -1 -123 -24 -34 -29 -38 -49 -12 -62 9 -5 89 -12
177 -15 88 -3 171 -8 185 -11 14 -4 36 -8 50 -11 51 -9 157 -48 215 -78 94
-49 150 -92 242 -186 35 -36 63 -58 63 -50 0 8 -6 21 -12 29 -8 8 -2 7 15 -3
107 -67 -131 227 -275 338 -184 144 -436 232 -681 239 -50 2 -96 2 -102 0z"/>
<path d="M897 1964 c-1 -1 -20 -4 -42 -8 -120 -17 -196 -46 -237 -89 -32 -34
-35 -53 -10 -65 22 -12 28 -10 137 43 50 24 120 57 158 74 37 16 67 33 67 38
0 6 -66 12 -73 7z"/>
<path d="M1288 1934 c-2 -1 -32 -5 -68 -8 -113 -9 -186 -28 -253 -64 -64 -35
-109 -86 -105 -120 5 -44 40 -40 119 12 38 25 73 46 78 46 5 0 11 4 13 8 4 11
81 45 162 72 73 24 127 49 111 51 -33 5 -55 6 -57 3z"/>
<path d="M1503 1723 c-172 -95 -244 -353 -158 -568 14 -32 22 -61 20 -64 -8
-7 -54 51 -74 94 -21 45 -34 115 -34 185 0 59 13 150 25 173 9 18 6 18 -39 12
-26 -3 -64 -10 -83 -15 -19 -5 -46 -11 -60 -14 -57 -10 -250 -93 -270 -115 -3
-3 -25 -22 -50 -42 -126 -102 -174 -175 -211 -325 -24 -98 -32 -119 -62 -151
l-20 -22 -38 39 c-38 39 -46 74 -25 109 13 21 -4 11 -34 -20 -16 -18 -30 -36
-30 -41 0 -4 -16 -16 -35 -25 -19 -9 -35 -20 -35 -25 0 -16 -40 -29 -59 -18
-16 8 -22 6 -30 -7 -6 -10 -11 -13 -11 -8 -1 9 -76 -160 -105 -235 -7 -19 -20
-52 -29 -72 l-16 -38 92 -59 92 -60 51 54 c27 30 75 82 105 116 30 34 70 77
88 96 32 34 32 35 12 51 -18 15 -19 21 -9 54 8 24 20 38 34 42 11 3 34 17 51
31 l29 25 13 -31 c52 -126 -31 -360 -164 -460 -24 -18 -44 -36 -44 -40 0 -4
20 -7 43 -7 49 0 89 27 106 71 6 16 18 27 29 27 23 0 79 65 109 128 l23 47 -6
-50 c-3 -27 -14 -70 -25 -94 -15 -33 -18 -56 -13 -88 13 -91 76 -25 130 137
l22 65 -2 -72 c0 -40 -3 -73 -6 -73 -3 0 -6 -8 -6 -17 0 -10 -4 -32 -8 -50
l-7 -31 43 2 c56 3 78 14 78 37 0 10 3 19 8 19 4 0 8 20 10 44 5 81 21 128 23
70 1 -16 3 -54 4 -84 1 -30 3 -63 4 -72 2 -27 99 -23 123 5 10 11 18 23 19 26
0 3 3 15 5 26 8 36 17 99 18 133 3 63 26 33 52 -70 5 -23 14 -59 19 -78 2 -8
4 -25 4 -37 1 -20 5 -21 101 -21 58 0 98 3 95 9 -4 5 1 9 11 9 14 0 15 7 10
48 -19 142 -16 148 19 32 25 -83 39 -100 80 -98 19 1 35 5 35 10 0 4 7 8 16 8
11 0 14 5 9 18 -17 42 -36 110 -41 147 -5 38 -4 37 32 -30 36 -68 80 -133 98
-147 14 -9 176 -6 170 4 -3 4 5 8 17 8 18 0 13 6 -24 31 -26 17 -60 47 -77 67
-16 20 -40 37 -52 39 -24 3 -58 37 -58 58 0 7 8 23 19 36 12 16 20 48 24 94 9
106 12 110 55 76 50 -39 76 -43 104 -19 20 17 21 21 7 31 -15 11 -41 52 -45
70 -1 4 -2 8 -4 10 -1 1 -3 10 -5 20 -5 27 13 20 30 -12 36 -72 158 -151 258
-170 96 -17 252 12 287 54 7 8 17 15 22 15 19 0 101 97 128 152 28 58 53 163
54 233 1 22 -4 72 -11 110 -17 97 -19 106 -37 148 -15 37 -16 37 -39 22 -13
-8 -32 -13 -41 -9 -11 4 -16 1 -16 -10 0 -9 -6 -16 -14 -16 -12 0 -11 -8 5
-44 40 -92 36 -302 -9 -391 -57 -113 -213 -113 -291 1 -30 43 -46 90 -71 210
-32 154 -89 256 -174 315 -29 19 -36 30 -36 57 0 66 -61 149 -135 183 -53 24
-149 25 -192 2z m405 -549 c43 -30 18 -79 -27 -54 -27 14 -28 70 -2 70 4 0 17
-7 29 -16z m-1483 -264 c3 -5 2 -10 -4 -10 -5 0 -13 5 -16 10 -3 6 -2 10 4 10
5 0 13 -4 16 -10z m-45 -26 c0 -8 -4 -12 -10 -9 -13 8 -13 -1 0 -25 5 -10 23
-23 39 -28 21 -7 28 -16 26 -29 -2 -10 -4 -21 -4 -25 -1 -12 -151 86 -151 99
0 13 43 31 78 32 14 1 22 -5 22 -15z m534 -77 c6 -25 -11 -39 -35 -27 -20 11
-31 48 -15 53 21 7 44 -5 50 -26z m496 -142 c14 -37 0 -65 -27 -54 -30 11 -43
39 -34 74 0 3 12 5 26 5 18 0 28 -7 35 -25z"/>
<path d="M121 1276 c-42 -44 -14 -84 33 -49 18 12 25 26 23 42 -3 32 -30 35
-56 7z"/>
<path d="M321 1185 c-24 -26 -23 -55 2 -55 7 0 24 11 36 24 20 22 21 25 6 40
-20 20 -15 20 -44 -9z"/>
<path d="M186 1049 c-31 -36 -32 -50 -8 -72 26 -24 44 -21 75 11 30 31 33 48
13 75 -20 26 -51 21 -80 -14z"/>
<path d="M2371 533 c-1 -16 -11 -27 -33 -37 l-33 -14 27 -10 c15 -6 34 -24 42
-39 15 -27 15 -27 16 -5 0 13 4 21 9 17 5 -3 12 3 16 14 3 11 19 22 36 26 17
4 27 10 24 13 -7 7 -12 8 -39 11 -8 0 -18 10 -21 22 -5 15 -10 17 -20 9 -10
-8 -14 -7 -18 2 -3 7 -6 3 -6 -9z"/>
<path d="M1979 487 c7 -9 14 -37 15 -62 0 -35 -5 -50 -27 -73 l-28 -29 51 5
c48 4 52 3 85 -32 31 -33 34 -34 25 -12 -12 32 2 34 24 4 15 -21 16 -21 7 -2
-27 56 -15 122 26 147 24 15 13 25 -15 15 -38 -15 -78 -3 -109 30 -17 17 -24
21 -20 10 4 -10 3 -18 0 -18 -4 0 -16 8 -27 18 -20 16 -20 16 -7 -1z"/>
</g>
</svg>
